<svg width="24" height="18" viewBox="0 0 24 18" fill="none" xmlns="http://www.w3.org/2000/svg">
<path d="M14.3652 15.1756C14.6812 15.1167 14.9956 15.0492 15.3079 14.973L17.2693 17.1799C21.6967 17.0358 23.4011 14.0712 23.4011 14.0712C23.4011 7.48563 20.5144 2.1486 20.5144 2.1486C17.6316 -0.0602203 14.8852 0.000162543 14.8852 0.000162543L14.0243 1.02277C12.5297 0.811498 11.0134 0.804944 9.51704 1.00329C9.44404 1.00612 9.37123 1.01263 9.29888 1.02277L8.51391 0.000162543C8.51391 0.000162543 5.76943 -0.0602203 2.88472 2.14666C2.88472 2.14666 0 7.48563 0 14.0712C0 14.0712 1.68292 17.0377 6.1103 17.1799L7.90424 14.8484C8.45158 14.9945 8.8762 15.0977 9.17617 15.1561C10.8889 15.4919 12.6499 15.4985 14.3652 15.1756Z" fill="#F3F3F3"/>
<circle cx="7.79108" cy="9.73908" r="1.94782" fill="#2A2A2A"/>
<circle cx="15.5825" cy="9.73908" r="1.94782" fill="#2A2A2A"/>
</svg>
