<svg width="30" height="30" viewBox="0 0 30 30" fill="none" xmlns="http://www.w3.org/2000/svg">
<path d="M12.1429 7.28574V9.71431H6.07145V23.0715H19.4286V17H21.8572V24.2857C21.8572 24.6078 21.7292 24.9166 21.5015 25.1444C21.2738 25.3721 20.9649 25.5 20.6429 25.5H4.85717C4.53512 25.5 4.22626 25.3721 3.99854 25.1444C3.77082 24.9166 3.64288 24.6078 3.64288 24.2857V8.50003C3.64288 8.17798 3.77082 7.86912 3.99854 7.6414C4.22626 7.41367 4.53512 7.28574 4.85717 7.28574H12.1429ZM25.5 3.64288V13.3572H23.0715V7.78724L13.6085 17.2514L11.8915 15.5344L21.3532 6.07145H15.7857V3.64288H25.5Z" fill="#F3F3F3"/>
</svg>
