<svg width="17" height="17" viewBox="0 0 17 17" fill="none" xmlns="http://www.w3.org/2000/svg">
<g clip-path="url(#clip0_0_172)">
<path d="M4.60419 8.14581C4.1856 8.14581 3.77111 8.06337 3.38438 7.90318C2.99766 7.74299 2.64627 7.5082 2.35028 7.21222C2.0543 6.91623 1.81951 6.56484 1.65932 6.17812C1.49913 5.79139 1.41669 5.3769 1.41669 4.95831C1.41669 4.53972 1.49913 4.12523 1.65932 3.73851C1.81951 3.35178 2.0543 3.0004 2.35028 2.70441C2.64627 2.40842 2.99766 2.17363 3.38438 2.01345C3.77111 1.85326 4.1856 1.77081 4.60419 1.77081C5.44956 1.77081 6.26032 2.10664 6.85809 2.70441C7.45586 3.30218 7.79169 4.11294 7.79169 4.95831C7.79169 5.80369 7.45586 6.61444 6.85809 7.21222C6.26032 7.80999 5.44956 8.14581 4.60419 8.14581ZM4.95835 15.2291C4.11298 15.2291 3.30222 14.8933 2.70445 14.2955C2.10668 13.6978 1.77085 12.887 1.77085 12.0416C1.77085 11.1963 2.10668 10.3855 2.70445 9.78774C3.30222 9.18997 4.11298 8.85415 4.95835 8.85415C5.80373 8.85415 6.61448 9.18997 7.21226 9.78774C7.81003 10.3855 8.14585 11.1963 8.14585 12.0416C8.14585 12.887 7.81003 13.6978 7.21226 14.2955C6.61448 14.8933 5.80373 15.2291 4.95835 15.2291ZM12.0417 8.14581C11.6231 8.14581 11.2086 8.06337 10.8219 7.90318C10.4352 7.74299 10.0838 7.5082 9.78778 7.21222C9.4918 6.91623 9.25701 6.56484 9.09682 6.17812C8.93663 5.79139 8.85419 5.3769 8.85419 4.95831C8.85419 4.53972 8.93663 4.12523 9.09682 3.73851C9.25701 3.35178 9.4918 3.0004 9.78778 2.70441C10.0838 2.40842 10.4352 2.17363 10.8219 2.01345C11.2086 1.85326 11.6231 1.77081 12.0417 1.77081C12.8871 1.77081 13.6978 2.10664 14.2956 2.70441C14.8934 3.30218 15.2292 4.11294 15.2292 4.95831C15.2292 5.80369 14.8934 6.61444 14.2956 7.21222C13.6978 7.80999 12.8871 8.14581 12.0417 8.14581ZM12.0417 15.2291C11.1963 15.2291 10.3856 14.8933 9.78778 14.2955C9.19001 13.6978 8.85419 12.887 8.85419 12.0416C8.85419 11.1963 9.19001 10.3855 9.78778 9.78774C10.3856 9.18997 11.1963 8.85415 12.0417 8.85415C12.8871 8.85415 13.6978 9.18997 14.2956 9.78774C14.8934 10.3855 15.2292 11.1963 15.2292 12.0416C15.2292 12.887 14.8934 13.6978 14.2956 14.2955C13.6978 14.8933 12.8871 15.2291 12.0417 15.2291ZM4.60419 6.72915C5.07384 6.72915 5.52426 6.54258 5.85636 6.21048C6.18845 5.87839 6.37502 5.42797 6.37502 4.95831C6.37502 4.48866 6.18845 4.03824 5.85636 3.70614C5.52426 3.37405 5.07384 3.18748 4.60419 3.18748C4.13453 3.18748 3.68411 3.37405 3.35202 3.70614C3.01992 4.03824 2.83335 4.48866 2.83335 4.95831C2.83335 5.42797 3.01992 5.87839 3.35202 6.21048C3.68411 6.54258 4.13453 6.72915 4.60419 6.72915ZM4.95835 13.8125C5.42801 13.8125 5.87843 13.6259 6.21052 13.2938C6.54262 12.9617 6.72919 12.5113 6.72919 12.0416C6.72919 11.572 6.54262 11.1216 6.21052 10.7895C5.87843 10.4574 5.42801 10.2708 4.95835 10.2708C4.4887 10.2708 4.03828 10.4574 3.70619 10.7895C3.37409 11.1216 3.18752 11.572 3.18752 12.0416C3.18752 12.5113 3.37409 12.9617 3.70619 13.2938C4.03828 13.6259 4.4887 13.8125 4.95835 13.8125ZM12.0417 6.72915C12.5113 6.72915 12.9618 6.54258 13.2939 6.21048C13.626 5.87839 13.8125 5.42797 13.8125 4.95831C13.8125 4.48866 13.626 4.03824 13.2939 3.70614C12.9618 3.37405 12.5113 3.18748 12.0417 3.18748C11.572 3.18748 11.1216 3.37405 10.7895 3.70614C10.4574 4.03824 10.2709 4.48866 10.2709 4.95831C10.2709 5.42797 10.4574 5.87839 10.7895 6.21048C11.1216 6.54258 11.572 6.72915 12.0417 6.72915ZM12.0417 13.8125C12.5113 13.8125 12.9618 13.6259 13.2939 13.2938C13.626 12.9617 13.8125 12.5113 13.8125 12.0416C13.8125 11.572 13.626 11.1216 13.2939 10.7895C12.9618 10.4574 12.5113 10.2708 12.0417 10.2708C11.572 10.2708 11.1216 10.4574 10.7895 10.7895C10.4574 11.1216 10.2709 11.572 10.2709 12.0416C10.2709 12.5113 10.4574 12.9617 10.7895 13.2938C11.1216 13.6259 11.572 13.8125 12.0417 13.8125Z" fill="#F3F3F3"/>
</g>
<defs>
<clipPath id="clip0_0_172">
<rect width="17" height="17" fill="white"/>
</clipPath>
</defs>
</svg>
