<svg width="20" height="20" viewBox="0 0 20 20" fill="none" xmlns="http://www.w3.org/2000/svg">
<g clip-path="url(#clip0_0_414)">
<path d="M2.5 5.83332L9.5375 1.14165C9.67444 1.05028 9.83538 1.00153 10 1.00153C10.1646 1.00153 10.3256 1.05028 10.4625 1.14165L17.5 5.83332V17.5C17.5 17.721 17.4122 17.933 17.2559 18.0892C17.0996 18.2455 16.8877 18.3333 16.6667 18.3333H3.33333C3.11232 18.3333 2.90036 18.2455 2.74408 18.0892C2.5878 17.933 2.5 17.721 2.5 17.5V5.83332ZM4.16667 6.72498V16.6666H15.8333V6.72498L10 2.83665L4.16667 6.72498ZM10 9.16665C9.55797 9.16665 9.13405 8.99106 8.82149 8.67849C8.50893 8.36593 8.33333 7.94201 8.33333 7.49998C8.33333 7.05796 8.50893 6.63403 8.82149 6.32147C9.13405 6.00891 9.55797 5.83332 10 5.83332C10.442 5.83332 10.8659 6.00891 11.1785 6.32147C11.4911 6.63403 11.6667 7.05796 11.6667 7.49998C11.6667 7.94201 11.4911 8.36593 11.1785 8.67849C10.8659 8.99106 10.442 9.16665 10 9.16665Z" fill="#F3F3F3"/>
</g>
<defs>
<clipPath id="clip0_0_414">
<rect width="20" height="20" fill="white"/>
</clipPath>
</defs>
</svg>
